ffmpeg version N-55863-g9f38fac053-static https://johnvansickle.com/ffmpeg/  Copyright (c) 2000-2021 the FFmpeg developers
  built with gcc 8 (Debian 8.3.0-6)
  configuration: --enable-gpl --enable-version3 --enable-static --disable-debug --disable-ffplay --disable-indev=sndio --disable-outdev=sndio --cc=gcc --enable-fontconfig --enable-frei0r --enable-gnutls --enable-gmp --enable-libgme --enable-gray --enable-libaom --enable-libfribidi --enable-libass --enable-libvmaf --enable-libfreetype --enable-libmp3lame --enable-libopencore-amrnb --enable-libopencore-amrwb --enable-libopenjpeg --enable-librubberband --enable-libsoxr --enable-libspeex --enable-libsrt --enable-libvorbis --enable-libopus --enable-libtheora --enable-libvidstab --enable-libvo-amrwbenc --enable-libvpx --enable-libwebp --enable-libx264 --enable-libx265 --enable-libxml2 --enable-libdav1d --enable-libxvid --enable-libzvbi --enable-libzimg
  libavutil      56. 64.100 / 56. 64.100
  libavcodec     58.119.100 / 58.119.100
  libavformat    58. 65.101 / 58. 65.101
  libavdevice    58. 11.103 / 58. 11.103
  libavfilter     7.100.100 /  7.100.100
  libswscale      5.  8.100 /  5.  8.100
  libswresample   3.  8.100 /  3.  8.100
  libpostproc    55.  8.100 / 55.  8.100
Input #0, mov,mp4,m4a,3gp,3g2,mj2, from '/home/yiaapc5/public_html/f_data/data_userfiles/user_uploads/3995073565/v/1612724533.mp4':
  Metadata:
    major_brand     : mp42
    minor_version   : 0
    compatible_brands: isommp42
    encoder         : Google
  Duration: 00:03:01.93, start: 0.000000, bitrate: 2100 kb/s
    Stream #0:0(und): Video: h264 (High) (avc1 / 0x31637661), yuv420p(tv, bt709), 1280x720 [SAR 1:1 DAR 16:9], 1969 kb/s, 29.97 fps, 29.97 tbr, 30k tbn, 59.94 tbc (default)
    Metadata:
      handler_name    : ISO Media file produced by Google Inc.
      vendor_id       : [0][0][0][0]
    Stream #0:1(eng): Audio: aac (LC) (mp4a / 0x6134706D), 44100 Hz, stereo, fltp, 127 kb/s (default)
    Metadata:
      handler_name    : ISO Media file produced by Google Inc.
      vendor_id       : [0][0][0][0]
Codec AVOption rc_eq (Set rate control equation. When computing the expression, besides the standard functions defined in the section 'Expression Evaluation', the following functions are available: bits2qp(bits), qp2bits(qp). Also the following constants are available: iTex pTex tex mv fCode iCount mcVar var isI isP isB avgQP qComp avgIITex avgPITex avgPPTex avgBPTex avgTex.) specified for output file #0 (/home/yiaapc5/public_html/f_data/data_userfiles/user_media/3995073565/v/2d5fee4fa9f4095f1fcdae923436da20.mob.nomob.mp4) has not been used for any stream. The most likely reason is either wrong type (e.g. a video option with no video streams) or that it is a private option of some encoder which was not actually used for any stream.
Stream mapping:
  Stream #0:0 -> #0:0 (h264 (native) -> h264 (libx264))
  Stream #0:1 -> #0:1 (aac (native) -> aac (native))
Press [q] to stop, [?] for help
[libx264 @ 0x6155040] Application has requested 32 threads. Using a thread count greater than 16 is not recommended.
[libx264 @ 0x6155040] using SAR=136/135
[libx264 @ 0x6155040] frame MB size (30x17) > level limit (396)
[libx264 @ 0x6155040] VBV bitrate (10000) > level limit (768)
[libx264 @ 0x6155040] VBV buffer (10000) > level limit (2000)
[libx264 @ 0x6155040] MB rate (15284) > level limit (11880)
[libx264 @ 0x6155040] using cpu capabilities: MMX2 SSE2Fast SSSE3 SSE4.2 AVX
[libx264 @ 0x6155040] profile Constrained Baseline, level 1.3, 4:2:0, 8-bit
[libx264 @ 0x6155040] 264 - core 161 r3040 35417dc - H.264/MPEG-4 AVC codec - Copyleft 2003-2021 - http://www.videolan.org/x264.html - options: cabac=0 ref=1 deblock=1:0:0 analyse=0x1:0 me=hex subme=1 psy=1 psy_rd=1.00:0.00 mixed_ref=0 me_range=16 chroma_me=1 trellis=0 8x8dct=0 cqm=0 deadzone=21,11 fast_pskip=1 chroma_qp_offset=0 threads=32 lookahead_threads=2 sliced_threads=0 nr=0 decimate=1 interlaced=0 bluray_compat=0 constrained_intra=0 bframes=0 weightp=0 keyint=300 keyint_min=25 scenecut=40 intra_refresh=0 rc_lookahead=30 rc=abr mbtree=1 bitrate=1000 ratetol=1.0 qcomp=0.60 qpmin=10 qpmax=51 qpstep=4 vbv_maxrate=10000 vbv_bufsize=10000 nal_hrd=none filler=0 ip_ratio=1.41 aq=1:1.00
Output #0, mp4, to '/home/yiaapc5/public_html/f_data/data_userfiles/user_media/3995073565/v/2d5fee4fa9f4095f1fcdae923436da20.mob.nomob.mp4':
  Metadata:
    major_brand     : mp42
    minor_version   : 0
    compatible_brands: isommp42
    encoder         : Lavf58.65.101
    Stream #0:0(und): Video: h264 (avc1 / 0x31637661), yuv420p(tv, bt709, progressive), 480x272 [SAR 136:135 DAR 16:9], q=2-31, 1000 kb/s, 29.97 fps, 30k tbn (default)
    Metadata:
      handler_name    : ISO Media file produced by Google Inc.
      vendor_id       : [0][0][0][0]
      encoder         : Lavc58.119.100 libx264
    Side data:
      cpb: bitrate max/min/avg: 10000000/0/1000000 buffer size: 10000000 vbv_delay: N/A
    Stream #0:1(eng): Audio: aac (LC) (mp4a / 0x6134706D), 44100 Hz, stereo, fltp, 127 kb/s (default)
    Metadata:
      handler_name    : ISO Media file produced by Google Inc.
      vendor_id       : [0][0][0][0]
      encoder         : Lavc58.119.100 aac
frame=    1 fps=0.0 q=0.0 size=       0kB time=00:00:00.41 bitrate=   0.9kbits/s speed=8.92x    frame=  181 fps=0.0 q=30.0 size=     512kB time=00:00:06.38 bitrate= 656.9kbits/s speed=11.7x    frame=  401 fps=383 q=30.0 size=    1536kB time=00:00:13.49 bitrate= 932.7kbits/s speed=12.9x    frame=  615 fps=397 q=26.0 size=    2304kB time=00:00:20.48 bitrate= 921.6kbits/s speed=13.2x    frame=  833 fps=407 q=25.0 size=    3072kB time=00:00:27.88 bitrate= 902.4kbits/s speed=13.6x    frame= 1055 fps=414 q=27.0 size=    4352kB time=00:00:35.31 bitrate=1009.5kbits/s speed=13.9x    frame= 1277 fps=419 q=27.0 size=    5376kB time=00:00:42.74 bitrate=1030.2kbits/s speed=  14x    frame= 1498 fps=422 q=28.0 size=    6400kB time=00:00:50.17 bitrate=1044.9kbits/s speed=14.1x    frame= 1715 fps=423 q=28.0 size=    7424kB time=00:00:57.26 bitrate=1062.1kbits/s speed=14.1x    frame= 1930 fps=424 q=28.0 size=    8448kB time=00:01:04.57 bitrate=1071.7kbits/s speed=14.2x    frame= 2151 fps=426 q=28.0 size=    9472kB time=00:01:12.00 bitrate=1077.6kbits/s speed=14.3x    frame= 2370 fps=427 q=28.0 size=   10496kB time=00:01:19.20 bitrate=1085.6kbits/s speed=14.3x    frame= 2591 fps=428 q=25.0 size=   11008kB time=00:01:26.42 bitrate=1043.4kbits/s speed=14.3x    frame= 2814 fps=429 q=23.0 size=   11776kB time=00:01:33.83 bitrate=1028.1kbits/s speed=14.3x    frame= 3036 fps=430 q=23.0 size=   12544kB time=00:01:41.70 bitrate=1010.4kbits/s speed=14.4x    frame= 3254 fps=431 q=22.0 size=   13568kB time=00:01:48.69 bitrate=1022.6kbits/s speed=14.4x    frame= 3478 fps=432 q=25.0 size=   15104kB time=00:01:56.12 bitrate=1065.5kbits/s speed=14.4x    frame= 3700 fps=432 q=27.0 size=   16640kB time=00:02:03.55 bitrate=1103.3kbits/s speed=14.4x    frame= 3921 fps=433 q=27.0 size=   17664kB time=00:02:10.98 bitrate=1104.7kbits/s speed=14.5x    frame= 4145 fps=434 q=28.0 size=   18944kB time=00:02:18.41 bitrate=1121.2kbits/s speed=14.5x    frame= 4360 fps=433 q=28.0 size=   19968kB time=00:02:25.65 bitrate=1123.0kbits/s speed=14.5x    frame= 4577 fps=433 q=28.0 size=   20992kB time=00:02:32.81 bitrate=1125.4kbits/s speed=14.5x    frame= 4824 fps=436 q=26.0 size=   21504kB time=00:02:41.16 bitrate=1093.0kbits/s speed=14.6x    frame= 5054 fps=437 q=24.0 size=   21760kB time=00:02:48.62 bitrate=1057.1kbits/s speed=14.6x    frame= 5292 fps=439 q=20.0 size=   22272kB time=00:02:56.95 bitrate=1031.0kbits/s speed=14.7x    frame= 5452 fps=440 q=-1.0 Lsize=   22434kB time=00:03:01.90 bitrate=1010.3kbits/s speed=14.7x    
video:19763kB audio:2519kB subtitle:0kB other streams:0kB global headers:0kB muxing overhead: 0.681605%
[libx264 @ 0x6155040] frame I:26    Avg QP:17.70  size: 16103
[libx264 @ 0x6155040] frame P:5426  Avg QP:21.38  size:  3652
[libx264 @ 0x6155040] mb I  I16..4: 32.1%  0.0% 67.9%
[libx264 @ 0x6155040] mb P  I16..4:  2.3%  0.0%  0.0%  P16..4: 68.4%  0.0%  0.0%  0.0%  0.0%    skip:29.4%
[libx264 @ 0x6155040] final ratefactor: 19.77
[libx264 @ 0x6155040] coded y,uvDC,uvAC intra: 36.9% 36.7% 16.2% inter: 33.5% 13.3% 0.8%
[libx264 @ 0x6155040] i16 v,h,dc,p: 51% 21% 17% 10%
[libx264 @ 0x6155040] i4 v,h,dc,ddl,ddr,vr,hd,vl,hu: 25% 19% 11%  8%  8%  7%  7%  7%  8%
[libx264 @ 0x6155040] i8c dc,h,v,p: 58% 18% 16%  8%
[libx264 @ 0x6155040] kb/s:889.95
[aac @ 0x6218b80] Qavg: 7635.237
